<svg width="22" height="21" viewBox="0 0 22 21" fill="none" xmlns="http://www.w3.org/2000/svg">
<path fill-rule="evenodd" clip-rule="evenodd" d="M8.89824 4.53749C7.82741 4.53749 6.80045 4.96287 6.04326 5.72006C5.28607 6.47725 4.86069 7.50421 4.86069 8.57504C4.86069 9.64586 5.28607 10.6728 6.04326 11.43C6.80045 12.1872 7.82741 12.6126 8.89824 12.6126C9.96906 12.6126 10.996 12.1872 11.7532 11.43C12.5104 10.6728 12.9358 9.64586 12.9358 8.57504C12.9358 7.50421 12.5104 6.47725 11.7532 5.72006C10.996 4.96287 9.96906 4.53749 8.89824 4.53749ZM2.84192 8.57504C2.8418 7.62188 3.06665 6.68215 3.49819 5.83227C3.92973 4.9824 4.55578 4.24638 5.32541 3.68408C6.09504 3.12178 6.98652 2.74907 7.92735 2.59627C8.86819 2.44347 9.8318 2.51489 10.7398 2.80473C11.6478 3.09456 12.4746 3.59462 13.153 4.26425C13.8313 4.93387 14.342 5.75414 14.6435 6.65834C14.945 7.56255 15.0289 8.52516 14.8883 9.46789C14.7476 10.4106 14.3865 11.3068 13.8341 12.0837L18.6963 16.9459C18.8802 17.1362 18.982 17.3912 18.9797 17.6559C18.9774 17.9205 18.8712 18.1737 18.6841 18.3609C18.4969 18.548 18.2437 18.6542 17.9791 18.6565C17.7144 18.6588 17.4594 18.557 17.2691 18.3731L12.4079 13.5119C11.5018 14.1562 10.4359 14.5387 9.3269 14.6173C8.21791 14.696 7.10867 14.4679 6.12071 13.9581C5.13275 13.4482 4.3042 12.6762 3.72586 11.7267C3.14752 10.7772 2.8417 9.68681 2.84192 8.57504Z" fill="#2188E7"/>
</svg>
