<svg width="37" height="28" viewBox="0 0 37 28" fill="none" xmlns="http://www.w3.org/2000/svg">
<path d="M9.50876 12C10.3088 8 13.9088 5 18.1088 5C21.1088 5 23.5088 6.4 25.1088 8.6L28.5088 4.6C26.1088 1.8 22.3088 0 18.1088 0C11.1088 0 5.30876 5.2 4.30876 12H0.108765L7.10876 20L14.1088 12H9.50876ZM29.1088 8L22.1088 16H26.7088C25.7088 20 22.3088 23 18.1088 23C15.1088 23 12.7088 21.6 11.1088 19.4L7.70877 23.2C10.1088 26.2 13.9088 28 18.1088 28C25.1088 28 30.9088 22.8 31.9088 16H36.1088L29.1088 8Z" fill="#A38DFD"/>
</svg>
