<svg width="43" height="24" viewBox="0 0 43 24" fill="none" xmlns="http://www.w3.org/2000/svg">
<path d="M38.5509 8.16667H22.5467C21.7572 5.92509 20.2914 3.98378 18.3518 2.61056C16.4121 1.23735 14.0941 0.499912 11.7175 0.5C5.37336 0.5 0.217529 5.65583 0.217529 12C0.217529 18.3442 5.37336 23.5 11.7175 23.5C14.0941 23.5001 16.4121 22.7626 18.3518 21.3894C20.2914 20.0162 21.7572 18.0749 22.5467 15.8333H23.2175L27.0509 19.6667L30.8842 15.8333L34.7175 19.6667L42.3842 11.9233L38.5509 8.16667ZM11.7175 17.75C8.55503 17.75 5.96753 15.1625 5.96753 12C5.96753 8.8375 8.55503 6.25 11.7175 6.25C14.88 6.25 17.4675 8.8375 17.4675 12C17.4675 15.1625 14.88 17.75 11.7175 17.75Z" fill="#7AB8F1"/>
</svg>
