<svg width="37" height="28" viewBox="0 0 37 28" fill="none" xmlns="http://www.w3.org/2000/svg">
<path d="M32.5257 6.97053C32.5477 7.27431 32.5477 7.57809 32.5477 7.88467C32.5477 17.2263 25.0696 28 11.3954 28V27.9944C7.356 28 3.40051 26.8997 0 24.825C0.587361 24.8922 1.17767 24.9258 1.76944 24.9272C5.11696 24.93 8.36879 23.8619 11.0023 21.895C7.82117 21.8376 5.03158 19.8651 4.05706 16.9855C5.17142 17.1899 6.31965 17.1479 7.41341 16.8637C3.94518 16.1973 1.45 13.2995 1.45 9.93414C1.45 9.90334 1.45 9.87394 1.45 9.84455C2.4834 10.3919 3.64046 10.6957 4.82401 10.7293C1.55746 8.65322 0.550559 4.52068 2.52315 1.28969C6.29757 5.70641 11.8665 8.39144 17.8446 8.67562C17.2454 6.22017 18.0639 3.64714 19.9953 1.92105C22.9895 -0.755585 27.6987 -0.618394 30.5133 2.22763C32.1782 1.91545 33.774 1.33448 35.2343 0.511335C34.6793 2.14783 33.5178 3.53794 31.9663 4.42129C33.4398 4.2561 34.8795 3.88092 36.2353 3.30836C35.2372 4.73067 33.9801 5.96959 32.5257 6.97053Z" fill="#1D9BF0"/>
</svg>
